<svg width="41" height="34" viewBox="0 0 41 34" fill="none" xmlns="http://www.w3.org/2000/svg">
<path d="M35.6279 20.7128V13.1708M39.9989 18.2618V15.6118C39.9989 15.1438 39.7139 14.7238 39.2789 14.5518L35.6279 13.1608V2.15783C35.5884 1.83827 35.4334 1.54419 35.1921 1.33094C34.9508 1.1177 34.6399 1 34.3179 1C33.9959 1 33.685 1.1177 33.4438 1.33094C33.2025 1.54419 33.0475 1.83827 33.0079 2.15783V2.83783C27.5159 6.51883 18.7239 9.98983 10.7219 9.98983H4.88992C4.35949 9.98983 3.85078 10.2005 3.47571 10.5756C3.10064 10.9507 2.88992 11.4594 2.88992 11.9898V12.8798C2.38492 12.8851 1.90257 13.0902 1.54838 13.4502C1.19419 13.8102 0.996988 14.2958 0.999924 14.8008V19.0518C1.01561 19.554 1.22959 20.0296 1.59504 20.3744C1.96049 20.7193 2.44765 20.9053 2.94992 20.8918V21.8128C2.94992 22.3433 3.16064 22.852 3.53571 23.227C3.91078 23.6021 4.41949 23.8128 4.94992 23.8128H7.14993L9.46092 31.5558C9.51387 31.745 9.62792 31.9113 9.78529 32.0289C9.94266 32.1465 10.1345 32.2087 10.3309 32.2058H14.3839C14.4739 32.2158 14.5639 32.2158 14.6539 32.2058C14.8898 32.1255 15.0872 31.96 15.2074 31.7417C15.3277 31.5234 15.3621 31.2681 15.3039 31.0258L14.0139 26.7038H14.6339C14.7233 26.7184 14.8145 26.7184 14.9039 26.7038C15.138 26.6216 15.3331 26.4552 15.4513 26.2372C15.5696 26.0191 15.6026 25.7649 15.5439 25.5238L15.1539 24.3138C21.511 25.2945 27.5868 27.6162 32.9779 31.1248V31.7448C32.9679 31.8288 32.9679 31.9128 32.9779 31.9948C33.0111 32.3411 33.1804 32.66 33.4487 32.8813C33.717 33.1027 34.0622 33.2085 34.4084 33.1753C34.7547 33.1422 35.0736 32.9728 35.2949 32.7046C35.5163 32.4363 35.6221 32.0911 35.5889 31.7448V20.7438L39.2389 19.3518C39.4637 19.2724 39.6578 19.1245 39.7942 18.929C39.9305 18.7335 40.0021 18.5002 39.9989 18.2618Z" stroke="#FF0000" stroke-linecap="round" stroke-linejoin="round"/>
</svg>
