<svg width="60" height="86" viewBox="0 0 60 86" fill="none" xmlns="http://www.w3.org/2000/svg">
<path d="M30.5199 69.5158C31.2367 65.6717 32.6833 62.1402 35.1726 59.938C35.1726 59.938 48.1141 62.4921 50.2645 61.0978C54.3177 58.4655 52.9753 45.8385 51.8024 39.9224C49.8735 30.3056 37.6749 32.8336 37.727 25.1192C37.7531 21.5227 38.4699 19.3986 39.6037 15.9063C42.5882 8.53076 41.5977 2.58863 35.342 0.594911C28.0828 -1.7246 23.2867 3.00566 22.3353 10.1466C21.3839 17.1703 23.8862 25.028 30.572 21.7963C29.8422 24.6892 27.1444 26.6569 21.5664 26.5266C12.652 26.3181 10.8144 27.8818 7.59528 31.6347C4.11553 35.7004 -1.91862 43.9881 0.596679 46.2164C7.34765 52.2237 16.0926 51.4679 22.596 52.0934C20.8496 53.3444 14.5938 55.703 9.92815 54.4911C8.92463 72.6172 25.0852 86 40.1772 86C49.0916 86 57.6411 80.6834 60 79.0414C36.124 88.515 29.2687 76.2528 30.5199 69.5158Z" fill="white"/>
</svg>
